<svg xmlns="http://www.w3.org/2000/svg" width="512" height="512" viewBox="0 0 512 512" version="1.1">
	<path d="M 0 232 C 0 359.600, 0.337 463.993, 0.750 463.985 C 4.247 463.916, 14.829 460.509, 17.787 458.499 L 21.464 456 57.732 456 L 94 456 94 458.875 C 94 462.359, 96.214 463, 108.259 463 C 117.187 463, 122.935 461.641, 125.972 458.811 C 127.890 457.024, 128 455.734, 128 434.961 C 128 414.016, 128.088 413, 129.909 413 C 131.644 413, 131.849 413.951, 132.159 423.419 C 132.347 429.150, 132.830 434.167, 133.234 434.569 C 133.637 434.972, 140.837 434.092, 149.234 432.615 C 157.630 431.138, 168.550 429.375, 173.500 428.697 L 182.500 427.464 182.789 418.732 L 183.078 410 192.539 410 C 204.299 410, 205.207 407.895, 194.500 405.455 C 191.811 404.842, 191.707 404.686, 193.500 403.956 C 194.600 403.507, 198.313 403.109, 201.750 403.070 C 205.188 403.032, 208 402.620, 208 402.155 C 208 400.649, 204.462 398.056, 200.434 396.612 C 196.753 395.291, 197.223 395.236, 207.750 395.750 C 219.210 396.310, 221.680 395.542, 216.302 393.092 C 214.142 392.107, 213.893 391.680, 215.052 390.947 C 215.848 390.443, 218.075 389.956, 220 389.865 C 223.067 389.721, 223.158 389.649, 220.733 389.282 C 216.086 388.580, 218.776 387, 224.618 387 C 228.030 387, 229.883 386.620, 229.500 386 C 229.160 385.450, 228.035 385, 227 385 C 225.965 385, 224.821 384.520, 224.459 383.933 C 224.096 383.346, 224.407 382.950, 225.150 383.052 C 225.892 383.154, 229.200 383.127, 232.500 382.992 L 238.500 382.747 234.727 381.692 C 230.151 380.411, 230.382 378.820, 235.326 377.574 L 239 376.647 239 361.792 C 239 348.768, 238.792 346.857, 237.310 346.289 C 236.380 345.932, 235.451 346.146, 235.245 346.764 C 235.039 347.382, 234.225 347.640, 233.435 347.337 C 232.378 346.931, 232 347.604, 232 349.893 C 232 351.602, 231.550 353, 231 353 C 230.450 353, 230 351.861, 230 350.469 C 230 347.589, 227.249 345.997, 225.914 348.104 C 225.428 348.872, 225.024 350.512, 225.015 351.750 C 225.007 352.988, 224.550 354, 224 354 C 223.450 354, 223 352.411, 223 350.469 C 223 346.903, 220.521 344.540, 219.134 346.783 C 218.669 347.536, 217.053 347.556, 213.735 346.848 C 208.708 345.776, 207.314 344, 211.500 344 C 212.875 344, 214 343.598, 214 343.107 C 214 341.613, 210.970 340.946, 208.993 342.004 C 206.486 343.346, 206 343.264, 206 341.500 C 206 340.480, 207.021 340, 209.191 340 C 212.196 340, 212.269 339.917, 210.441 338.571 C 208.330 337.018, 208.250 337.093, 213.813 335.411 C 215.771 334.819, 214.354 333.238, 211.239 332.539 C 209.732 332.201, 207.413 331.096, 206.084 330.083 L 203.667 328.240 205.907 327.530 C 208.085 326.838, 208.096 326.764, 206.323 324.809 C 205.320 323.704, 204.036 321.157, 203.468 319.150 C 202.171 314.563, 199.618 314.279, 199.192 318.673 C 198.996 320.697, 198.012 322.417, 196.475 323.425 C 193.962 325.071, 194.047 328, 196.607 328 C 199.309 328, 197.952 329.876, 193.984 331.627 L 189.968 333.399 192.645 335.534 C 195.829 338.073, 195.094 340, 190.941 340 C 187.455 340, 186.957 341.477, 190.349 341.758 C 193.177 341.992, 198.081 343.847, 196.110 343.937 C 195.346 343.971, 194.205 344.705, 193.575 345.566 C 192.945 346.428, 190.533 347.387, 188.215 347.698 L 184 348.263 183.936 337.882 C 183.781 312.816, 182.841 294.153, 181.456 288.637 C 179.511 280.891, 172.436 267.436, 167.948 262.948 C 164.519 259.519, 163.221 258.979, 151.137 255.954 L 146.774 254.862 154.085 250.312 C 164.911 243.574, 178.454 236.549, 187.500 232.977 C 198.837 228.500, 219.396 223.448, 233.842 221.588 C 274.891 216.305, 315.338 225.547, 348.390 247.762 L 358.362 254.465 354.931 255.330 C 337.224 259.798, 336.355 260.402, 330.255 272.500 C 323.609 285.681, 323 289.512, 323 318.171 C 323 334.154, 322.602 344.875, 321.965 346.066 C 320.900 348.055, 316.840 348.600, 312.250 347.370 C 309.747 346.699, 309.146 344, 311.500 344 C 312.325 344, 313 343.492, 313 342.872 C 313 342.116, 311.680 341.955, 309 342.384 C 305.411 342.958, 305 342.810, 305 340.944 C 305 339.320, 305.438 339.004, 307 339.500 C 309.143 340.180, 309.841 338.491, 307.750 337.685 C 307.063 337.419, 307.962 336.663, 309.750 336.003 C 311.537 335.344, 313 334.460, 313 334.038 C 313 333.617, 310.975 332.498, 308.500 331.553 C 303.876 329.787, 302.864 328.373, 305.500 327.362 C 307.597 326.557, 307.369 325.252, 305 324.500 C 303.900 324.151, 303 323.198, 303 322.383 C 303 321.568, 302.297 319.541, 301.438 317.880 C 300.170 315.428, 299.606 315.082, 298.447 316.044 C 297.578 316.765, 297.247 318.137, 297.602 319.549 C 298.023 321.227, 297.605 322.230, 296.092 323.175 C 293.645 324.703, 293.365 326.819, 295.500 327.638 C 297.514 328.411, 297.396 329.733, 295.250 330.449 C 294.288 330.770, 292.388 331.890, 291.029 332.937 L 288.558 334.842 291.279 336.081 C 294.881 337.722, 294.729 339.604, 290.934 340.363 C 287.184 341.113, 287.990 343, 292.059 343 C 295.772 343, 295.905 344.771, 292.250 345.541 C 290.738 345.860, 288.623 346.300, 287.552 346.518 C 286.481 346.737, 284.999 346.414, 284.260 345.801 C 282.423 344.276, 281.211 345.756, 280.821 350 C 280.645 351.925, 280.050 353.367, 279.500 353.205 C 278.950 353.042, 278.629 352.098, 278.787 351.108 C 279.121 349.010, 276.568 346.531, 275.044 347.473 C 274.470 347.828, 274 349.216, 274 350.559 C 274 351.902, 273.550 353, 273 353 C 272.450 353, 272 351.650, 272 350 C 272 346.482, 270.499 346.007, 269.630 349.250 C 268.842 352.193, 268.849 367.455, 269.642 372.250 C 270.144 375.287, 270.689 376, 272.508 376 C 273.744 376, 275.297 376.653, 275.959 377.450 C 276.955 378.651, 276.590 379.066, 273.831 379.860 C 270.723 380.755, 270.889 380.826, 276.309 380.910 C 282.685 381.009, 283.151 382.316, 277.261 383.582 C 273.529 384.384, 273.546 384.395, 279.500 385.004 C 282.800 385.341, 285.761 385.238, 286.080 384.775 C 286.781 383.756, 290 384.850, 290 386.107 C 290 386.598, 288.762 387.037, 287.250 387.081 L 284.500 387.162 287.500 388.536 C 289.150 389.292, 291.962 389.930, 293.750 389.955 C 295.538 389.980, 297 390.305, 297 390.677 C 297 391.050, 295.538 392.622, 293.750 394.171 C 291.962 395.721, 291.175 396.802, 292 396.575 C 292.825 396.347, 297.100 395.921, 301.500 395.627 L 309.500 395.093 304.820 397.143 C 297.341 400.418, 297.896 401.694, 307.157 402.514 C 315.518 403.254, 316.039 403.947, 309.750 405.957 C 307.688 406.616, 306 407.522, 306 407.971 C 306 408.420, 310.050 409.108, 315 409.500 L 324 410.212 324 417.628 C 324 424.393, 324.197 425.119, 326.250 425.914 C 328.063 426.617, 359.758 432.853, 371.250 434.769 L 374 435.227 374 417.113 C 374 407.151, 374.395 399, 374.878 399 C 378.051 399, 378.502 402.439, 379 430.402 L 379.500 458.500 383.419 460.413 C 388.391 462.840, 394.624 463.434, 405.555 462.524 L 414.211 461.803 413.630 458.901 L 413.050 456 451.275 456.005 L 489.500 456.009 497.114 458.971 C 501.302 460.600, 506.589 462.230, 508.864 462.594 L 513 463.256 513 231.628 L 513 0 256.500 0 L 0 0 0 232 M 0.492 232.500 C 0.492 360.100, 0.608 412.151, 0.750 348.170 C 0.892 284.188, 0.892 179.788, 0.750 116.170 C 0.608 52.551, 0.492 104.900, 0.492 232.500 M 211 18.870 L 201.500 19.500 207 20.879 C 213.368 22.475, 217.226 24.375, 212.500 23.587 C 210.850 23.312, 205.900 22.836, 201.500 22.530 C 194.043 22.012, 193.703 22.071, 196.500 23.402 C 198.150 24.188, 203.305 26.151, 207.955 27.764 L 216.410 30.698 203.205 30.570 C 195.942 30.500, 190 30.496, 190 30.563 C 190 30.630, 193.262 31.942, 197.250 33.479 C 206.648 37.101, 207.427 37.921, 200.426 36.823 C 193.806 35.785, 192.687 36.240, 196.662 38.352 L 199.500 39.861 195.216 40.564 C 191.090 41.241, 190.995 41.337, 192.642 43.157 C 195.794 46.640, 192.948 47.127, 184.465 44.557 C 180.084 43.230, 173.800 41.845, 170.500 41.479 C 164.803 40.847, 155.041 38.720, 151.368 37.311 C 150.306 36.903, 149.916 37.055, 150.324 37.716 C 150.683 38.297, 153.925 39.570, 157.528 40.545 C 161.131 41.520, 164.312 42.697, 164.598 43.159 C 165.095 43.962, 159.732 44.468, 155.500 44.017 C 152.492 43.697, 154.324 45.033, 161.260 48.219 C 165.401 50.122, 166.491 50.924, 164.500 50.605 C 157.144 49.427, 150 48.916, 150 49.568 C 150 49.959, 150.787 50.939, 151.750 51.745 C 152.822 52.643, 152.401 52.558, 150.663 51.526 C 146.296 48.931, 146.450 50.374, 150.952 54.227 C 155.730 58.317, 156.456 60.792, 152.250 58.652 C 147.233 56.100, 145.190 55.784, 144.831 57.507 C 144.555 58.835, 143.939 58.681, 141.091 56.574 C 137.910 54.221, 137.594 54.168, 136.360 55.776 C 135.534 56.853, 134.749 57.125, 134.269 56.500 C 133.846 55.950, 129.675 55.338, 125 55.139 C 120.325 54.941, 116.312 54.603, 116.083 54.389 C 115.105 53.475, 117.132 52.912, 123.572 52.311 C 131.012 51.616, 130.344 50.631, 121.658 49.488 C 115.878 48.726, 116.132 48.119, 122.652 47.117 L 127.500 46.372 122 44.741 C 118.975 43.844, 113.350 42.693, 109.500 42.183 C 102.615 41.270, 102.195 41.351, 84 47.080 C 73.825 50.284, 63.025 53.603, 60 54.456 C 51.302 56.907, 48.517 59.115, 45.208 66.186 C 41.348 74.431, 40.612 78.469, 42.604 80.461 C 44.814 82.671, 47.438 82.419, 63 78.500 C 72.077 76.214, 79.084 75.027, 83.199 75.079 L 89.500 75.158 84.500 77.566 L 79.500 79.974 85.500 80.197 C 93.311 80.486, 95.887 80.437, 105.500 79.818 C 111.712 79.418, 112.885 79.536, 110.750 80.344 C 106.227 82.058, 107.601 83, 114.622 83 C 120.440 83, 121.091 83.185, 119.981 84.523 C 118.948 85.767, 118.972 85.965, 120.109 85.606 C 120.874 85.365, 122.850 84.877, 124.500 84.523 C 126.434 84.108, 129.943 81.325, 134.375 76.690 C 138.157 72.735, 140.965 70.400, 140.616 71.500 C 140.205 72.796, 141.031 72.269, 142.964 70 C 145.875 66.584, 147.033 67.201, 144.965 71.066 C 143.591 73.633, 143.972 73.558, 152.328 69.618 C 159.146 66.403, 168.418 63.746, 165 65.986 C 161.993 67.957, 176.475 66.895, 184.500 64.555 C 185.600 64.235, 184.250 65.117, 181.500 66.516 L 176.500 69.059 181.390 68.530 C 184.079 68.238, 187.516 68, 189.027 68 C 190.544 68, 194.107 66.396, 196.977 64.422 C 199.837 62.454, 202.402 61.069, 202.676 61.342 C 202.949 61.616, 201.995 62.612, 200.556 63.556 C 196.968 65.906, 197.911 66.353, 202.455 64.455 C 207.516 62.340, 208.146 63.351, 203.344 65.884 L 199.500 67.912 212 67.967 C 224.905 68.024, 232 68.735, 232 69.973 C 232 70.364, 227.387 71.727, 221.750 73.002 C 216.113 74.277, 210.150 75.924, 208.500 76.662 C 205.708 77.912, 205.951 77.968, 212 77.477 L 218.500 76.949 211.500 78.930 C 207.650 80.019, 203.150 81.301, 201.500 81.779 L 198.500 82.647 201.721 83.293 C 203.492 83.648, 207.978 84.249, 211.689 84.630 C 221.799 85.665, 216.520 86.785, 203.500 86.366 L 192.500 86.012 200.895 87.985 C 205.513 89.069, 209.525 90.192, 209.812 90.479 C 210.230 90.897, 197.571 91.466, 192.250 91.269 C 191.563 91.243, 191 91.622, 191 92.111 C 191 92.600, 191.787 93.019, 192.750 93.042 C 193.713 93.065, 196.051 93.910, 197.947 94.919 L 201.394 96.755 188.197 97.489 C 180.939 97.893, 175 98.562, 175 98.977 C 175 99.391, 178.488 101.218, 182.750 103.037 C 194.735 108.150, 194.521 108.659, 181.527 105.943 C 179.342 105.486, 177.398 105.268, 177.208 105.459 C 176.754 105.912, 187.648 109.980, 191.245 110.699 C 196.787 111.807, 194.934 112.919, 188.538 112.321 C 184.942 111.986, 182 111.986, 182 112.323 C 182 112.660, 183.238 113.647, 184.750 114.516 C 187.421 116.050, 187.308 116.083, 180.774 115.665 L 174.047 115.234 176.996 118.811 C 178.618 120.779, 179.784 122.549, 179.588 122.745 C 179.392 122.942, 176.592 122.158, 173.366 121.005 C 163.197 117.368, 163.813 117.405, 164.585 120.482 L 165.273 123.225 162.577 121.459 C 160.861 120.334, 157.184 119.519, 152.462 119.216 C 144.493 118.704, 143.521 117.595, 150.073 116.488 C 152.307 116.110, 153.934 115.600, 153.688 115.354 C 152.725 114.391, 128.136 111.025, 122 111.017 L 115.500 111.007 118.641 112.923 C 123.202 115.704, 124.020 117.446, 120.399 116.664 C 114.231 115.332, 102.038 114.764, 95.422 115.500 C 91.615 115.924, 88.950 116.406, 89.500 116.572 C 90.050 116.738, 93.087 117.384, 96.250 118.008 C 101.806 119.104, 104.148 121, 99.946 121 C 92.596 121, 60.045 130.985, 60.011 133.250 C 59.995 134.310, 60.708 134.237, 72.215 132.003 C 82.594 129.988, 109.241 129.105, 106 130.884 C 105.175 131.337, 98.768 133.461, 91.761 135.604 C 84.755 137.747, 79.018 139.784, 79.011 140.131 C 78.997 140.937, 85.972 142.683, 92.750 143.571 C 97.645 144.211, 100.163 145.974, 96.250 146.021 C 95.287 146.032, 88.200 146.694, 80.500 147.491 C 72.800 148.288, 66.162 148.954, 65.750 148.970 C 64.370 149.025, 64.981 151, 66.378 151 C 67.135 151, 68.315 151.675, 69 152.500 C 70.553 154.371, 69.111 154.381, 56.500 152.589 C 50.711 151.766, 46.338 151.629, 44.243 152.204 C 38.097 153.891, 22.667 168.495, 21.307 173.912 C 20.967 175.268, 21.280 190.130, 22.003 206.939 C 22.726 223.747, 23.401 241.255, 23.504 245.845 C 23.606 250.463, 24.165 254.484, 24.755 254.848 C 25.340 255.210, 25.973 256.855, 26.160 258.503 C 26.479 261.312, 26.797 261.519, 31.250 261.805 C 36.334 262.131, 36.714 261.662, 34.790 257.438 C 33.740 255.135, 33.837 254.592, 35.515 253.366 C 37.142 252.176, 37.255 251.638, 36.225 249.989 C 34.605 247.394, 34.675 245.339, 36.406 244.675 C 37.179 244.378, 38.115 242.755, 38.485 241.068 C 39.338 237.185, 40.651 237.136, 41.490 240.955 C 41.854 242.612, 42.986 244.178, 44.069 244.522 C 46.124 245.174, 46.662 247.473, 45 248.500 C 43.398 249.490, 43.846 253.167, 45.737 254.549 C 47.380 255.751, 47.375 255.928, 45.639 257.847 C 43.088 260.665, 44.464 262.349, 48.751 261.653 C 55.557 260.549, 57.163 256.669, 55.351 245.706 C 54.838 242.604, 54.111 241.655, 51.362 240.507 C 47.052 238.706, 47.088 237.262, 51.464 236.441 C 56.234 235.546, 57.548 233.766, 55.617 230.817 C 54.294 228.797, 54.281 228.116, 55.515 225.500 C 56.294 223.850, 57.385 221.263, 57.941 219.750 C 58.496 218.238, 59.359 217, 59.858 217 C 60.838 217, 66 226.958, 66 228.850 C 66 229.482, 65.550 230, 65 230 C 64.450 230, 64 231.082, 64 232.405 C 64 234.347, 64.805 235.069, 68.178 236.155 C 73.648 237.916, 74.098 239.638, 69.301 240.451 L 65.500 241.095 65.174 249.862 C 64.811 259.642, 65.194 260.390, 71.135 261.500 C 75.465 262.309, 76.494 261.178, 74.802 257.465 C 73.750 255.156, 73.832 254.596, 75.387 253.459 C 77.129 252.186, 77.127 252.023, 75.347 248.994 C 73.629 246.072, 73.617 245.766, 75.170 244.624 C 76.089 243.949, 77.234 241.875, 77.716 240.016 C 78.945 235.274, 80.752 235.118, 81.559 239.686 C 81.930 241.784, 83.182 244.253, 84.341 245.173 C 86.411 246.817, 86.415 246.884, 84.560 248.933 C 82.961 250.700, 82.861 251.372, 83.904 253.320 C 84.581 254.586, 84.992 256.928, 84.818 258.525 C 84.467 261.733, 86.226 262.662, 90.579 261.570 C 92.996 260.963, 93 260.940, 93 246.949 C 93 232.118, 92.141 228.161, 88.147 224.603 C 86.180 222.851, 86.147 222.613, 87.704 221.475 C 89.247 220.346, 89.256 220.043, 87.817 217.871 C 86.952 216.567, 84.402 214.375, 82.149 213 C 79.897 211.625, 78.042 210.219, 78.027 209.875 C 77.989 208.983, 83.508 208, 88.554 208 C 93.101 208, 96.016 206.107, 95.978 203.179 C 95.947 200.795, 92.538 194.058, 89.484 190.344 L 86.889 187.189 95.445 186.476 C 103.411 185.812, 105.445 185.011, 103 183.500 C 102.450 183.160, 102 181.784, 102 180.441 C 102 179.098, 102.450 178, 103 178 C 103.550 178, 104 177.115, 104 176.034 C 104 173.698, 107.050 167, 108.114 167 C 109.464 167, 114.918 175.933, 113.937 176.539 C 113.369 176.890, 113.574 177.981, 114.442 179.220 C 115.448 180.657, 115.613 181.854, 114.971 183.055 C 113.834 185.180, 114.646 185.562, 122.343 186.524 C 125.454 186.912, 128 187.462, 128 187.744 C 128 188.026, 126.455 189.968, 124.567 192.058 C 117.255 200.151, 118.095 210, 126.098 210 C 128.280 210, 128.715 210.376, 128.312 211.914 C 127.985 213.166, 128.522 214.209, 129.862 214.926 C 131.698 215.909, 133.355 214.575, 145.706 202.173 C 155.784 192.054, 162.372 186.419, 170.160 181.257 C 176.023 177.371, 181.760 173.893, 182.910 173.529 C 185.521 172.700, 185.541 171.800, 183 169.500 C 178.892 165.782, 181.999 159.523, 187.630 160.175 C 190.012 160.451, 192.280 162.956, 193.587 166.754 C 193.804 167.383, 214.418 159.246, 214.689 158.424 C 214.857 157.916, 213.613 156.600, 211.926 155.500 C 206.102 151.703, 204.562 145.871, 207.926 140.353 C 211.130 135.099, 219.673 133.610, 224.041 137.544 C 225.384 138.753, 225.807 138.514, 227.333 135.680 C 229.555 131.555, 231.827 130.150, 236.748 129.860 C 240.910 129.614, 245.474 132.099, 248.589 136.305 C 250.156 138.421, 250.192 138.344, 249.581 134.158 C 249.232 131.770, 248.073 128.103, 247.004 126.008 C 245.247 122.564, 245.186 121.719, 246.364 117.179 C 247.750 111.834, 250.427 107, 252 107 C 253.582 107, 255.839 111.210, 257.284 116.856 L 258.648 122.186 260.290 119.680 C 262.494 116.316, 267.494 115.232, 270.067 117.561 C 273.944 121.069, 271.339 127.328, 265.500 128.534 L 262.500 129.154 265.834 126.016 C 269.178 122.869, 269.510 120, 266.531 120 C 264.695 120, 264.558 121.158, 266.200 122.800 C 267.003 123.603, 267.038 124, 266.307 124 C 265.706 124, 264.944 123.297, 264.615 122.439 C 264.082 121.051, 263.671 121.079, 260.913 122.689 C 257.521 124.669, 253.982 130.592, 254.030 134.210 C 254.058 136.302, 254.152 136.343, 255.118 134.682 C 255.700 133.682, 257.487 132.066, 259.091 131.091 C 264.435 127.841, 274.642 131.029, 277.605 136.873 C 278.536 138.708, 278.897 138.829, 279.886 137.637 C 282.718 134.226, 291.868 135.343, 294.544 139.427 C 298.756 145.855, 297.899 151.120, 291.866 155.882 L 288.848 158.264 299.174 162.228 C 313.232 167.624, 313 167.572, 313 165.339 C 313 162.339, 315.888 159, 318.484 159 C 321.050 159, 325 163.190, 325 165.912 C 325 166.816, 324.338 168.499, 323.530 169.654 C 322.131 171.651, 322.353 171.934, 328.143 175.508 C 337.952 181.562, 353.765 194.583, 364.160 205.166 C 369.473 210.575, 374.311 215, 374.910 215 C 375.510 215, 376 213.954, 376 212.676 C 376 210.832, 376.761 210.162, 379.692 209.426 C 382.713 208.669, 383.538 207.905, 384.226 205.231 C 385.315 200.998, 383.688 194.971, 380.402 191.066 C 379.002 189.402, 378.119 187.617, 378.439 187.099 C 378.759 186.581, 381.941 185.844, 385.511 185.462 C 389.080 185.080, 392 184.588, 392 184.370 C 392 184.152, 391.442 183.079, 390.759 181.986 C 389.772 180.405, 389.772 179.595, 390.759 178.014 C 391.442 176.921, 392 175.287, 392 174.382 C 392 172.013, 395.999 165.881, 397.100 166.562 C 398.657 167.524, 402.115 175.005, 401.479 176.034 C 401.151 176.565, 401.359 177, 401.941 177 C 403.400 177, 403.275 180.325, 401.758 181.842 C 399.732 183.868, 402.704 184.968, 410.250 184.985 C 413.962 184.993, 417 185.238, 417 185.529 C 417 185.821, 415.217 188.315, 413.037 191.072 C 408.694 196.567, 407.195 201.627, 408.944 204.895 C 409.806 206.506, 411.059 207.014, 414.285 207.058 C 416.603 207.089, 420.282 207.432, 422.460 207.818 L 426.420 208.521 421.193 212.358 C 414.899 216.979, 413.413 219.268, 415.554 221.045 C 416.892 222.155, 416.845 222.543, 415.150 224.400 C 410.555 229.435, 409.929 232.277, 410.222 246.755 L 410.500 260.500 415.250 260.805 C 420.276 261.127, 420.896 260.440, 418.750 256.926 C 417.701 255.207, 417.777 254.672, 419.223 253.598 C 420.714 252.491, 420.782 251.882, 419.724 249.079 C 418.680 246.314, 418.738 245.665, 420.119 244.655 C 421.009 244.004, 422.058 242.011, 422.450 240.227 C 423.279 236.454, 424.571 236.768, 425.493 240.966 C 425.854 242.614, 426.989 244.179, 428.069 244.522 C 430.304 245.231, 430.475 246.267, 428.798 248.952 C 427.845 250.477, 427.887 251.421, 429 253.500 C 430.159 255.665, 430.178 256.486, 429.110 258.196 C 427.417 260.906, 429.270 262.249, 433.500 261.380 C 439.279 260.192, 440.001 259.340, 439.989 253.715 C 439.969 244.023, 439.144 241.461, 435.714 240.428 C 431.426 239.137, 431.260 237.361, 435.356 236.593 C 439.898 235.741, 441.801 233.512, 440.190 230.932 C 438.594 228.378, 438.689 226.784, 440.669 222.831 C 441.586 220.999, 442.648 218.825, 443.028 218 C 444.093 215.686, 445.238 216.208, 446.317 219.500 C 446.857 221.150, 447.579 222.725, 447.920 223 C 448.262 223.275, 449.067 224.700, 449.711 226.167 C 450.740 228.512, 450.616 229.012, 448.691 230.298 C 446.530 231.742, 446.526 231.791, 448.405 233.881 C 449.453 235.046, 451.253 236.007, 452.405 236.015 C 453.557 236.024, 455.084 236.401, 455.797 236.854 C 457.432 237.890, 455.739 239.430, 451.981 240.323 C 449.549 240.901, 449.452 241.231, 449.177 249.897 C 448.860 259.892, 448.989 260.103, 456.250 261.414 C 459.205 261.947, 460 261.776, 460 260.604 C 460 259.787, 459.550 258.840, 459 258.500 C 457.431 257.530, 457.830 254.195, 459.636 253.184 C 461.133 252.346, 461.112 251.998, 459.386 249.077 C 457.517 245.912, 457.519 245.871, 459.644 244.193 C 460.823 243.262, 462.090 241.487, 462.461 240.250 C 463.363 237.238, 465 237.384, 465 240.477 C 465 242.016, 465.947 243.574, 467.500 244.592 C 470.302 246.428, 470.766 248.769, 468.500 249.638 C 466.571 250.379, 466.597 251.740, 468.578 253.721 C 469.445 254.588, 469.950 256.019, 469.700 256.899 C 468.414 261.415, 468.456 261.496, 472.250 261.810 L 476 262.121 476 257.644 C 476 255.181, 476.442 253.017, 476.982 252.833 C 478.606 252.282, 473.859 189.348, 471.468 179.738 C 469.671 172.510, 460.420 151.924, 456.239 145.847 C 452.759 140.789, 447.983 138, 442.801 138 C 440.933 138, 435.601 139.341, 430.952 140.980 C 426.303 142.619, 421.150 143.953, 419.500 143.943 L 416.500 143.925 420.480 140.519 C 423.940 137.559, 424.222 137.022, 422.636 136.414 C 421.633 136.029, 413.204 136.030, 403.906 136.417 C 394.608 136.804, 387 136.916, 387 136.666 C 387 135.502, 401.100 130.751, 406.473 130.106 C 411.458 129.507, 410.425 129.377, 400.500 129.354 C 392.594 129.336, 386.340 128.759, 382.169 127.663 C 378.687 126.749, 374.975 126, 373.919 126 C 369.731 126, 372.349 124.190, 378.250 123.007 C 383.099 122.034, 384.052 121.573, 382.500 120.947 C 381.400 120.503, 379.543 120.109, 378.373 120.070 C 377.203 120.032, 372.928 119.233, 368.873 118.295 L 361.500 116.589 366 115.698 C 373.489 114.215, 373.796 114.003, 370.779 112.406 C 369.283 111.615, 365.458 110.359, 362.279 109.615 L 356.500 108.263 360.500 107.503 C 366.994 106.270, 367.971 105.269, 363.471 104.458 C 356.866 103.269, 355.935 102.076, 361.500 101.931 C 365.224 101.834, 365.866 101.624, 364.016 101.109 C 362.650 100.729, 357.925 101.004, 353.516 101.722 C 341.339 103.703, 334.271 103.547, 328.500 101.169 L 323.500 99.109 328 99.039 C 334.687 98.935, 335.897 97.606, 330.783 95.981 C 328.427 95.233, 325.656 94.062, 324.626 93.379 C 322.933 92.258, 323.127 92.074, 326.626 91.487 C 328.756 91.129, 331.625 90.479, 333 90.041 L 335.500 89.247 333 88.668 C 331.625 88.350, 327.338 87.596, 323.474 86.992 C 312.704 85.310, 312.091 84.044, 322 83.952 C 328.710 83.890, 329.974 83.663, 328 82.876 C 326.625 82.327, 322.678 81.615, 319.230 81.293 C 315.781 80.971, 313.144 80.522, 313.370 80.296 C 313.596 80.070, 317.543 79.541, 322.141 79.121 C 330.100 78.393, 330.357 78.296, 327.500 77.083 C 325.850 76.383, 323.375 75.331, 322 74.745 L 319.500 73.681 322 73.085 C 325.649 72.214, 335.686 66.752, 334.428 66.320 C 333.839 66.118, 330.746 67.107, 327.554 68.518 C 321.338 71.267, 319.179 71.239, 323.413 68.465 C 325.909 66.830, 326.967 64, 325.083 64 C 324.579 64, 322.128 64.874, 319.637 65.941 C 315.551 67.693, 315.171 67.717, 315.756 66.194 C 316.342 64.667, 316.139 64.679, 313.629 66.324 L 310.854 68.142 312.072 65.821 C 313.287 63.508, 313.284 63.507, 311.146 65.405 C 309.965 66.453, 309 66.945, 309 66.500 C 309 66.055, 308.128 66.479, 307.063 67.443 C 305.998 68.407, 304.614 68.880, 303.989 68.493 C 303.364 68.107, 301.760 68.816, 300.426 70.070 C 298.026 72.324, 296.885 71.515, 299.200 69.200 C 299.860 68.540, 299.960 68, 299.423 68 C 298.093 68, 293.890 70.990, 291.735 73.469 C 289.991 75.475, 289.977 75.466, 290.593 72.750 C 291.375 69.302, 290.390 69.271, 282.552 72.493 C 279.281 73.837, 276.399 74.732, 276.148 74.482 C 275.898 74.231, 277.398 72.417, 279.483 70.451 L 283.274 66.876 275.015 67.280 C 267.540 67.645, 267.005 67.553, 269.378 66.310 C 273.017 64.403, 272.654 63.811, 268.250 64.471 C 263.992 65.108, 264.307 64.916, 275.271 60.194 C 278.445 58.827, 280.839 57.506, 280.591 57.258 C 280.190 56.857, 269.261 59.062, 264.374 60.530 C 263.343 60.840, 265.841 59.373, 269.925 57.271 C 280.156 52.004, 280.393 50.522, 270.885 51.280 C 266.823 51.603, 260.913 52.774, 257.750 53.880 C 250.777 56.320, 250.250 55.696, 256.750 52.694 L 261.500 50.500 253.587 50 C 245.150 49.467, 244.656 48.278, 252 46.180 C 253.925 45.630, 254.713 45.140, 253.750 45.090 C 252.787 45.041, 252 44.606, 252 44.125 C 252 43.186, 256.779 42, 260.566 42 C 261.840 42, 263.134 41.593, 263.441 41.095 C 263.762 40.577, 261.435 40.363, 258 40.595 C 242.062 41.671, 239.497 41.721, 242.500 40.896 C 244.150 40.443, 249.550 39.526, 254.500 38.859 L 263.500 37.647 259 36.397 C 256.525 35.710, 251.236 34.624, 247.247 33.983 C 238.925 32.647, 238.545 31, 246.559 31 C 252.770 31, 253.624 29.691, 248.514 28.005 C 244.463 26.668, 242.673 24.681, 246.166 25.400 C 247.450 25.664, 252.100 26.113, 256.500 26.398 L 264.500 26.916 258.500 24.035 C 251.009 20.437, 251.675 20.196, 259.887 23.532 C 266.792 26.338, 280.731 29.284, 284.847 28.807 C 287.030 28.554, 286.386 28.077, 281.217 26.116 C 277.762 24.805, 275.062 23.606, 275.217 23.453 C 275.373 23.299, 277.525 23.565, 280 24.043 C 286.148 25.231, 292.752 25.210, 293.500 24 C 293.855 23.425, 292.924 22.993, 291.309 22.985 C 289.764 22.976, 287.825 22.533, 287 22 C 285.907 21.294, 286.708 21.026, 289.950 21.015 C 293.252 21.004, 294.109 20.709, 293.273 19.873 C 291.991 18.591, 227.131 17.801, 211 18.870 M 21.500 20 C 21.118 20.618, 22.910 21.006, 26.191 21.015 C 33.524 21.036, 35.550 22.541, 29.473 23.452 C 21.735 24.612, 21.232 25.205, 26.585 26.856 L 31.500 28.373 25.711 29.058 C 22.528 29.435, 19.670 29.997, 19.361 30.305 C 18.424 31.243, 20.010 32.999, 21.809 33.015 C 22.739 33.024, 24.140 33.436, 24.922 33.931 C 25.975 34.597, 25.298 35.112, 22.307 35.917 C 18.478 36.948, 18.239 37.241, 17.636 41.642 C 16.703 48.444, 16.860 74, 17.834 74 C 20.026 74, 37.825 31.273, 38.696 23.923 L 39.279 19 30.698 19 C 25.979 19, 21.840 19.450, 21.500 20 M 57.217 20.250 C 55.479 22.364, 52.852 32.773, 53.185 36.229 C 53.447 38.947, 53.959 39.553, 56.211 39.813 C 60.485 40.306, 76.964 35.498, 88.218 30.476 C 101.954 24.346, 101.456 24.672, 101.825 21.564 L 102.149 18.829 91.825 19.540 C 86.146 19.931, 81.354 20.378, 81.176 20.533 C 80.997 20.688, 84.372 21.113, 88.676 21.478 C 101.972 22.603, 102.194 23.957, 89.422 26.031 C 79.975 27.565, 58.438 26.382, 60.067 24.419 C 60.686 23.673, 63.962 22.501, 67.346 21.815 L 73.500 20.567 69 19.858 C 62.041 18.761, 58.341 18.884, 57.217 20.250 M 106 20.833 C 106 23.632, 107.145 24.179, 109.169 22.347 C 111.679 20.075, 111.464 19, 108.500 19 C 106.742 19, 106 19.544, 106 20.833 M 298.500 20 C 298.112 20.628, 300.323 21, 304.441 21 C 308.147 21, 311 20.565, 311 20 C 311 19.446, 308.353 19, 305.059 19 C 301.791 19, 298.840 19.450, 298.500 20 M 340.559 21.468 C 341.797 22.404, 345.217 23.006, 350 23.128 C 354.125 23.234, 355.925 23.490, 354 23.699 C 348.551 24.288, 347.091 25.047, 349.500 26.037 C 350.600 26.489, 352.683 26.891, 354.128 26.930 C 355.596 26.969, 357.361 27.899, 358.128 29.037 C 359.573 31.182, 361.361 31.512, 369.500 31.135 L 374.500 30.903 368.038 27.580 L 361.576 24.257 368.752 22.975 C 372.699 22.270, 375.693 21.312, 375.405 20.846 C 375.117 20.381, 366.723 20, 356.750 20 C 340.592 20, 338.829 20.160, 340.559 21.468 M 150 25 C 153.122 27.016, 167.043 31.127, 169.713 30.820 C 171.830 30.577, 170.172 29.718, 162.822 27.250 C 153.305 24.054, 146.758 22.905, 150 25 M 464 29.785 C 462.034 30.188, 462.658 30.533, 466.926 31.399 C 473.639 32.761, 475.344 35.434, 469.122 34.840 C 464.012 34.353, 463.747 35.560, 468.667 36.918 C 470.683 37.475, 473.833 39.385, 475.667 41.162 C 477.500 42.939, 479 43.864, 479 43.218 C 479 41.587, 473.722 30.663, 472.500 29.765 C 471.413 28.967, 467.950 28.975, 464 29.785 M 159.602 35.492 C 162.407 36.870, 166.907 38.263, 169.602 38.586 L 174.500 39.175 170.218 36.512 C 167.302 34.698, 164.113 33.712, 160.218 33.418 L 154.500 32.987 159.602 35.492 M 509.597 36.308 C 507.863 38.866, 507.749 40.404, 508.318 53.570 C 508.697 62.356, 509.444 68.901, 510.221 70.262 C 511.336 72.213, 511.537 71.250, 511.786 62.750 C 511.944 57.387, 511.944 48.612, 511.786 43.250 L 511.500 33.500 509.597 36.308 M 108.500 38.713 C 103.661 39.877, 105.731 40.476, 113.559 40.176 C 118.418 39.990, 121.783 39.458, 121.454 38.926 C 120.872 37.983, 112.133 37.839, 108.500 38.713 M 445 41.531 C 445 42.339, 445.675 43, 446.500 43 C 447.325 43, 448 42.598, 448 42.107 C 448 41.616, 447.325 40.955, 446.500 40.638 C 445.586 40.288, 445 40.637, 445 41.531 M 414.255 45.539 C 414.670 45.981, 417.788 46.845, 421.184 47.459 C 424.580 48.074, 427.541 49.122, 427.763 49.788 C 428.065 50.696, 424.573 51.030, 413.833 51.118 C 405.950 51.183, 398.153 51.525, 396.507 51.877 L 393.513 52.517 396.699 54.785 C 401.789 58.410, 406.874 60.166, 416.500 61.623 C 429.157 63.540, 432 63.448, 432 61.122 C 432 58.159, 430.060 57.313, 421.555 56.573 C 417.185 56.193, 412.917 55.493, 412.069 55.019 C 409.538 53.602, 415.226 52.676, 423.028 53.234 L 429.895 53.725 429.315 50.613 C 428.487 46.164, 427.949 45.843, 420.342 45.260 C 416.579 44.971, 413.840 45.097, 414.255 45.539 M 250.750 48.662 C 251.438 48.940, 252.563 48.940, 253.250 48.662 C 253.938 48.385, 253.375 48.158, 252 48.158 C 250.625 48.158, 250.063 48.385, 250.750 48.662 M 448.227 52.181 C 448.444 52.831, 450.024 53.843, 451.739 54.431 C 456.243 55.975, 456.613 56.779, 453.237 57.693 L 450.256 58.500 460.109 88 C 465.528 104.225, 471.842 121.241, 474.139 125.814 C 478.282 134.059, 483.474 140.860, 484.694 139.640 C 486.044 138.290, 482.677 85.410, 480.769 78 C 479.512 73.116, 475.367 68.473, 462.224 57.226 C 456.259 52.121, 454.308 51, 451.391 51 C 449.100 51, 447.974 51.421, 448.227 52.181 M 309.750 54.662 C 310.438 54.940, 311.563 54.940, 312.250 54.662 C 312.938 54.385, 312.375 54.158, 311 54.158 C 309.625 54.158, 309.063 54.385, 309.750 54.662 M 315.500 58.627 C 309.656 60.664, 303.925 63.258, 304.344 63.677 C 305.270 64.604, 315.600 61.532, 318.753 59.393 C 322.644 56.752, 321.592 56.504, 315.500 58.627 M 376.571 66.896 C 374.161 67.840, 384.244 70.041, 390.417 69.919 L 394.500 69.838 390.500 67.945 C 386.423 66.016, 380.045 65.536, 376.571 66.896 M 332 72.263 L 326.500 73.289 330 74.810 C 335.370 77.145, 345.054 77.541, 348.844 75.581 C 352.730 73.571, 352.881 72.794, 349.250 73.487 C 347.738 73.776, 347.063 73.747, 347.750 73.423 C 352.789 71.047, 342.560 70.294, 332 72.263 M 383.069 75.553 C 378.432 76.364, 374.453 77.213, 374.227 77.439 C 374.002 77.665, 375.995 78.171, 378.658 78.564 C 387.201 79.823, 388.100 80.687, 381.714 81.501 C 378.044 81.969, 374.380 81.806, 371.697 81.055 C 368.276 80.097, 365.567 80.177, 357.533 81.469 C 352.069 82.349, 347.443 83.224, 347.253 83.414 C 346.094 84.573, 356.470 85.071, 369.078 84.463 C 387.543 83.573, 389.745 85.320, 374.178 88.510 C 370.011 89.364, 370.618 89.997, 376.704 91.147 C 380.680 91.898, 401.586 95, 402.674 95 C 402.853 95, 403 95.420, 403 95.934 C 403 96.447, 401.762 97.035, 400.250 97.241 L 397.500 97.614 400.037 98.701 C 401.432 99.299, 409.979 100.321, 419.031 100.972 C 428.082 101.622, 435.656 102.323, 435.862 102.529 C 436.068 102.734, 434.945 103.173, 433.368 103.503 C 431.791 103.833, 428.241 104.980, 425.481 106.052 C 422.720 107.123, 419.345 108.001, 417.981 108.003 C 415.945 108.005, 416.488 108.600, 421 111.319 C 428.286 115.710, 432.257 117.003, 438.399 116.985 C 446.832 116.959, 446.926 116.731, 443.664 104.289 C 439.473 88.308, 437.104 82.950, 433.227 80.694 C 423.664 75.128, 399.592 72.660, 383.069 75.553 M 188.250 76.716 C 189.762 76.945, 192.238 76.945, 193.750 76.716 C 195.262 76.487, 194.025 76.300, 191 76.300 C 187.975 76.300, 186.738 76.487, 188.250 76.716 M 199.750 79.662 C 200.438 79.940, 201.563 79.940, 202.250 79.662 C 202.938 79.385, 202.375 79.158, 201 79.158 C 199.625 79.158, 199.063 79.385, 199.750 79.662 M 379 94.888 C 374.255 95.735, 376.377 96.868, 384.165 97.645 L 390.500 98.277 387.842 96.139 C 385.075 93.912, 384.737 93.864, 379 94.888 M 43.500 100.974 C 32.935 101.791, 30.628 102.628, 26.196 107.256 C 22.329 111.294, 20 118.185, 20 125.588 C 20 137.363, 27.619 136.855, 50.966 123.519 C 62.018 117.207, 70.227 114.275, 86.276 110.907 C 92.128 109.679, 96.699 108.321, 96.432 107.890 C 96.165 107.458, 88.457 107.095, 79.304 107.083 C 70.151 107.071, 62.253 106.653, 61.755 106.155 C 60.326 104.726, 66.621 103.003, 73.399 102.970 C 77.238 102.950, 78.944 102.627, 78 102.097 C 75.821 100.874, 53.989 100.163, 43.500 100.974 M 136.500 104 C 139.235 105.175, 144.181 105.175, 146 104 C 147.049 103.322, 145.545 103.047, 141 103.086 C 136.452 103.124, 135.101 103.399, 136.500 104 M 140.728 108.722 C 142.503 108.943, 145.653 108.946, 147.728 108.730 C 149.802 108.513, 148.350 108.333, 144.500 108.328 C 140.650 108.324, 138.952 108.501, 140.728 108.722 M 407.586 113.931 C 408.184 114.559, 410.434 115.311, 412.586 115.602 C 417.347 116.245, 415.317 114.603, 410 113.509 C 407.392 112.973, 406.777 113.080, 407.586 113.931 M 250.198 118.862 C 249.257 121.561, 249.971 128.305, 251.343 129.677 C 252.233 130.566, 254.195 122.613, 253.839 119.559 C 253.379 115.620, 251.456 115.252, 250.198 118.862 M 232.200 118.200 C 230.080 120.320, 230.800 124.698, 233.635 126.927 C 236.427 129.124, 239 129.649, 239 128.023 C 239 127.486, 237.875 126.309, 236.500 125.408 C 235.125 124.507, 234 123.147, 234 122.385 C 234 120.792, 236.578 120.509, 237.500 122 C 238.431 123.506, 242 123.201, 242 121.615 C 242 119.912, 237.732 117, 235.235 117 C 234.226 117, 232.860 117.540, 232.200 118.200 M 259.636 135.636 C 258.186 137.086, 257 139.276, 257 140.502 C 257 145.079, 263.981 151, 269.378 151 C 274.374 151, 278.071 141.942, 274.750 137.837 C 270.413 132.478, 263.763 131.509, 259.636 135.636 M 233.500 135.155 C 230.281 136.915, 229 139.140, 229 142.969 C 229 148.322, 231.318 151, 235.951 151 C 245.316 151, 249.740 139.502, 241.928 135.463 C 238.595 133.739, 236.245 133.653, 233.500 135.155 M 263.200 139.200 C 261.517 140.883, 261.706 144.564, 263.571 146.429 C 265.627 148.484, 269.616 148.443, 270.417 146.357 C 271.252 144.179, 270.141 143.157, 268.974 145.029 C 268.280 146.142, 267.639 146.240, 266.338 145.429 C 264.196 144.093, 263.787 142.887, 264.889 141.147 C 265.570 140.071, 266.200 140.037, 267.958 140.978 C 270.537 142.358, 271.299 141.944, 270.417 139.643 C 269.677 137.716, 264.973 137.427, 263.200 139.200 M 212.455 141.455 C 208.049 145.860, 209.499 150.450, 216.614 154.620 L 221.192 157.302 232.846 156.067 C 239.256 155.388, 245.157 154.754, 245.960 154.660 C 246.765 154.565, 247.741 152.922, 248.134 151.001 C 249.003 146.751, 248.433 145.937, 246.512 148.680 C 244.487 151.570, 238.904 154, 234.287 154 C 229.365 154, 226.447 151.417, 224.965 145.746 C 224.355 143.411, 223.127 140.938, 222.237 140.250 C 219.604 138.217, 215.142 138.767, 212.455 141.455 M 235.570 139.887 C 235.269 140.374, 235.692 141.329, 236.511 142.009 C 238.708 143.833, 238.326 145, 235.531 145 C 233.748 145, 233.223 145.416, 233.638 146.500 C 234.443 148.598, 237.228 148.368, 239.777 145.993 C 242.135 143.797, 241.819 141.509, 238.948 139.972 C 236.710 138.774, 236.264 138.763, 235.570 139.887 M 280.557 142.223 C 279.701 143.445, 279 145.220, 279 146.167 C 279 147.114, 277.987 149.066, 276.748 150.506 C 272.096 155.915, 261.322 154.232, 256.141 147.285 L 254.063 144.500 254.018 147 C 253.993 148.375, 253.713 150.468, 253.396 151.651 C 252.718 154.175, 252.992 154.251, 269.566 156.085 C 275.652 156.758, 281.832 157.008, 283.298 156.640 C 287.654 155.547, 293 150.218, 293 146.969 C 293 141.112, 283.794 137.601, 280.557 142.223 M 214.596 143.306 C 212.591 144.772, 212.723 149.087, 214.794 149.770 C 215.731 150.079, 215.908 149.481, 215.435 147.598 C 214.928 145.579, 215.155 145, 216.451 145 C 217.368 145, 217.840 145.450, 217.500 146 C 216.573 147.501, 217.861 148.991, 219.532 148.349 C 221.306 147.669, 221.453 144.853, 219.800 143.200 C 218.253 141.653, 216.816 141.683, 214.596 143.306 M 284.250 143.662 C 282.287 144.454, 282.742 148.783, 284.859 149.455 C 288.728 150.683, 292.213 147.167, 289.895 144.373 C 288.751 142.995, 286.581 142.722, 284.250 143.662 M 511 146.722 C 511 147.119, 509.627 156.852, 507.949 168.351 C 506.271 179.849, 505.033 191.112, 505.199 193.379 L 505.500 197.500 508.750 192.554 L 512 187.608 512 166.804 C 512 155.362, 511.775 146, 511.500 146 C 511.225 146, 511 146.325, 511 146.722 M 185.446 165.087 C 184.416 166.755, 186.733 168.667, 188.113 167.287 C 189.267 166.133, 188.545 164, 187 164 C 186.515 164, 185.816 164.489, 185.446 165.087 M 230.500 165.607 C 221.902 167.142, 204.575 172.605, 196.588 176.298 L 191.676 178.570 200.050 185.240 C 204.655 188.909, 208.590 191.744, 208.793 191.541 C 208.996 191.337, 208.676 190.262, 208.081 189.151 C 205.382 184.108, 207.868 176.154, 212.967 173.517 C 221.139 169.291, 231 175.323, 231 184.546 C 231 188.117, 230.479 189.260, 227.842 191.480 C 225.461 193.483, 224.046 193.978, 222.092 193.491 C 217.770 192.413, 215.869 190.011, 216.201 186.051 C 216.472 182.838, 216.786 182.500, 219.500 182.500 C 222.029 182.500, 222.550 182.931, 222.816 185.250 C 223.071 187.465, 222.731 188, 221.066 188 C 219.930 188, 219 187.460, 219 186.800 C 219 185.903, 218.685 185.920, 217.750 186.867 C 216.748 187.883, 216.897 188.427, 218.499 189.610 C 223.305 193.156, 229.516 188.176, 227.467 182.420 C 224.914 175.250, 215.847 174.018, 211.897 180.304 C 208.824 185.194, 209.739 192.584, 213.842 196.009 C 219.042 200.351, 230 206.059, 230 204.427 C 230 202.581, 233.583 199, 235.429 199 C 239.954 199, 241.628 206.301, 237.531 208.168 C 234.087 209.737, 235.338 211, 240.337 211 C 245.747 211, 249 208.767, 249 205.054 C 249 200.395, 246.173 197.925, 239.974 197.168 L 234.500 196.500 234.478 184.250 C 234.462 174.995, 234.768 172, 235.728 172 C 236.428 172, 237 172.450, 237 173 C 237 173.550, 237.675 174, 238.500 174 C 239.495 174, 240 173.005, 240 171.045 C 240 168.460, 240.438 168.008, 243.500 167.434 C 245.505 167.058, 247 166.184, 247 165.389 C 247 163.606, 241.289 163.682, 230.500 165.607 M 257 165 C 257 165.550, 256.982 166.338, 256.961 166.750 C 256.939 167.162, 258.402 167.728, 260.211 168.007 C 263.101 168.452, 263.465 168.845, 263.212 171.257 C 262.992 173.357, 263.355 174, 264.762 174 C 265.773 174, 267.132 173.468, 267.783 172.817 C 268.434 172.166, 269.098 171.828, 269.257 172.067 C 269.417 172.305, 269.388 177.734, 269.191 184.132 L 268.834 195.764 263.984 196.408 C 260.251 196.903, 258.544 197.753, 256.567 200.102 C 253.446 203.812, 253.320 206.320, 256.117 209.117 C 257.829 210.829, 259.072 211.139, 262.616 210.740 C 267.867 210.148, 270 208.590, 270 205.346 C 270 202.607, 267.446 201.154, 265.700 202.900 C 264.813 203.787, 265.067 204.205, 266.767 204.649 C 269.793 205.441, 269.641 208, 266.567 208 C 263.670 208, 262.380 205.027, 263.980 202.038 C 266.019 198.227, 273 199.901, 273 204.200 C 273 205.190, 273.247 206, 273.550 206 C 274.372 206, 279.729 203.235, 286.771 199.175 C 292.149 196.074, 293.192 195, 294.102 191.621 C 295.465 186.558, 294.560 181.852, 291.735 179.309 C 288.405 176.312, 286.252 175.868, 282.554 177.413 C 278.020 179.307, 276.017 184.851, 278.498 188.637 C 279.875 190.739, 280.790 191.127, 283.605 190.798 C 285.714 190.552, 286.901 190.802, 286.689 191.449 C 286.500 192.027, 284.492 192.637, 282.227 192.805 C 274.746 193.359, 271.754 186.985, 275.752 179.014 C 277.876 174.778, 281.095 173.034, 286.827 173.015 C 295.049 172.987, 300.018 181.636, 296.672 190.152 C 295.194 193.915, 295.202 194.083, 296.798 192.842 C 302.956 188.053, 312.002 179.507, 311.742 178.725 C 310.857 176.071, 285.225 167.459, 272.647 165.591 C 260.199 163.741, 257 163.621, 257 165 M 318 166 C 318 168.202, 318.124 168.273, 320.418 167.393 C 322.684 166.523, 322.373 164, 320 164 C 318.667 164, 318 164.667, 318 166 M 251.757 182 C 250.651 185.789, 250.787 187.613, 252.078 186.322 C 252.671 185.729, 253.006 183.951, 252.821 182.372 L 252.486 179.500 251.757 182 M 282.571 182.571 C 280.425 184.718, 280.597 187.714, 282.939 188.968 C 285.607 190.395, 286.800 188.310, 284.350 186.501 C 282.820 185.371, 282.728 184.907, 283.817 183.817 C 284.907 182.728, 285.358 182.802, 286.428 184.250 C 288.004 186.384, 289 186.494, 289 184.535 C 289 183.730, 288.130 182.605, 287.066 182.035 C 284.564 180.696, 284.431 180.712, 282.571 182.571 M 306.540 190.032 C 301.062 194.919, 292.186 201.523, 286.814 204.708 L 277.048 210.500 287.774 212.214 C 303.211 214.681, 319.268 220.221, 336.936 229.176 C 352.753 237.193, 357.331 238.948, 350.732 234.464 C 346.272 231.434, 345.881 228.412, 349.415 224.306 C 351.486 221.899, 352.543 221.510, 356.847 221.572 C 361.677 221.641, 365 223.140, 365 225.251 C 365 225.874, 363.182 226.017, 360.228 225.625 C 352.637 224.618, 348.589 228.679, 352.679 233.198 C 354.298 234.987, 354.404 234.944, 355.634 232.019 C 357.726 227.044, 364.711 225.850, 369.160 229.708 C 374.982 234.756, 369.400 244.849, 362.072 242.523 C 359.024 241.555, 359.551 243.303, 362.904 245.284 C 366.878 247.632, 372.500 247.500, 375 245 C 378.253 241.747, 377.750 234.336, 373.919 229.047 C 370.613 224.483, 361.492 215.312, 351 206.004 L 344.500 200.237 344.500 205.553 C 344.500 210.027, 344.052 211.337, 341.667 213.826 C 340.108 215.453, 337.493 217.051, 335.855 217.379 C 331.944 218.161, 326.198 215.709, 325.122 212.800 C 324.109 210.062, 325.402 205.851, 327.970 203.527 C 330.147 201.557, 336.117 201.803, 336.803 203.891 C 337.150 204.946, 336.620 205.121, 334.609 204.617 C 332.567 204.104, 331.388 204.521, 329.479 206.430 C 328.116 207.794, 327 209.347, 327 209.883 C 327 211.925, 330.276 214, 333.499 214 C 337.371 214, 341 210.283, 341 206.315 C 341 199.210, 334.405 194.127, 323.032 192.469 L 315.500 191.371 321.500 190.078 C 324.800 189.368, 328.169 188.582, 328.986 188.334 C 329.876 188.063, 327.887 186.500, 324.033 184.441 C 320.491 182.548, 317.347 181.033, 317.046 181.074 C 316.746 181.114, 312.018 185.145, 306.540 190.032 M 181.250 185.153 C 178.363 186.825, 176 188.509, 176 188.896 C 176 189.282, 177.484 189.425, 179.297 189.213 C 181.110 189.002, 184.148 189.505, 186.047 190.333 L 189.500 191.837 186.299 191.918 C 174.162 192.228, 165 198.160, 165 205.709 C 165 213.042, 172.858 217.896, 176.443 212.777 C 178.493 209.852, 178.410 207.681, 176.171 205.655 C 172.719 202.531, 167.350 204.521, 169.564 208.104 C 170.099 208.970, 170.681 208.790, 171.656 207.455 C 173.253 205.272, 175.655 206.851, 174.664 209.433 C 173.141 213.402, 166.195 209.112, 167.498 205.007 C 169.551 198.538, 181 202.404, 181 209.566 C 181 213.342, 176.345 218, 172.572 218 C 165.559 218, 161.265 213.956, 160.150 206.299 L 159.500 201.831 144.652 216.155 C 136.485 224.034, 129.173 231.699, 128.402 233.190 C 124.015 241.674, 130.345 249.801, 139.059 246.873 C 142.763 245.629, 146 243.252, 146 241.778 C 146 241.276, 144.988 241.198, 143.750 241.606 C 138.430 243.357, 133 240.537, 133 236.024 C 133 233.240, 136.751 229.214, 140.012 228.497 C 142.075 228.044, 143 227.241, 143 225.904 C 143 223.298, 148.888 220.504, 152.481 221.406 C 160.194 223.342, 162.849 233.081, 155.990 234.275 C 154.620 234.513, 154.041 234.520, 154.703 234.290 C 156.798 233.561, 157.242 230.018, 155.560 227.451 C 152.810 223.254, 147.223 224.766, 148.384 229.393 C 148.744 230.827, 149.488 232, 150.038 232 C 150.588 232, 150.800 233.012, 150.509 234.250 C 150.218 235.488, 150.395 237.137, 150.902 237.916 C 151.654 239.072, 153.124 238.560, 158.892 235.133 C 173.383 226.524, 191.269 219.614, 213.324 214.102 L 228.147 210.398 222.824 207.535 C 214.665 203.148, 209.071 199.149, 202.500 193.004 C 193.722 184.796, 190.054 181.993, 188.173 182.056 C 187.253 182.087, 184.137 183.481, 181.250 185.153 M 261.195 185.500 C 261.215 187.150, 261.439 187.704, 261.693 186.731 C 261.947 185.758, 261.930 184.408, 261.656 183.731 C 261.382 183.054, 261.175 183.850, 261.195 185.500 M 306.384 196.434 C 302.702 198.037, 300.598 202.811, 301.976 206.437 C 304.207 212.306, 313.225 214.072, 316.927 209.365 C 318.067 207.916, 319 205.869, 319 204.815 C 319 201.677, 316.331 197.472, 313.528 196.195 C 310.340 194.742, 310.267 194.744, 306.384 196.434 M 192.229 196.669 C 190.474 197.375, 187.993 202.417, 188.032 205.200 C 188.103 210.368, 193.479 213.535, 199.403 211.899 C 203.518 210.763, 205 208.575, 205 203.638 C 205 198.012, 198.164 194.281, 192.229 196.669 M 192.939 201.061 C 188.680 205.320, 193.425 211.374, 199.250 209.116 C 202.817 207.733, 203.115 202.894, 199.777 200.557 C 196.825 198.488, 195.407 198.593, 192.939 201.061 M 306.750 200.080 C 304.740 201.251, 304.401 206.001, 306.200 207.800 C 308.087 209.687, 308.892 209.221, 308.688 206.359 C 308.585 204.907, 309.062 203.519, 309.749 203.276 C 311.561 202.635, 312.515 205.945, 311.149 208.132 C 309.541 210.707, 312.060 210.696, 314.394 208.118 C 318.605 203.464, 312.308 196.843, 306.750 200.080 M 234.446 203.087 C 234.077 203.685, 234.236 204.636, 234.800 205.200 C 236.062 206.462, 238 205.396, 238 203.441 C 238 201.757, 235.426 201.501, 234.446 203.087 M 195.368 204.484 C 194.471 206.820, 196.766 208.985, 198.025 206.992 C 198.544 206.171, 198.834 205.078, 198.671 204.563 C 198.132 202.856, 196.012 202.806, 195.368 204.484 M 331.709 207.624 C 329.967 209.366, 331.091 211.122, 333.750 210.816 C 335.387 210.628, 336.500 209.893, 336.500 209 C 336.500 207.428, 332.930 206.403, 331.709 207.624 M 119.032 248.250 C 119.012 260.105, 119.368 267, 120 267 C 120.605 267, 121 262.716, 121 256.147 C 121 250.177, 121.264 242.640, 121.587 239.397 C 122.035 234.903, 121.804 233.024, 120.619 231.500 C 119.196 229.670, 119.061 231.092, 119.032 248.250 M 360.035 232.934 C 358.449 235.898, 358.790 237.817, 361.126 239.068 C 365.727 241.530, 370.433 235.833, 366.800 232.200 C 364.963 230.363, 361.192 230.772, 360.035 232.934 M 137.447 234.059 C 136.020 235.635, 135.833 236.513, 136.649 237.809 C 138.281 240.399, 140.965 240.583, 140.305 238.058 C 139.999 236.888, 140.249 236, 140.883 236 C 141.498 236, 142 236.675, 142 237.500 C 142 238.325, 142.423 239, 142.941 239 C 144.513 239, 145.222 237.022, 144.575 234.443 C 143.800 231.353, 140.077 231.153, 137.447 234.059 M 361.701 234.632 C 360.127 236.207, 361.061 238.130, 363.250 237.820 C 364.488 237.644, 365.500 236.831, 365.500 236.014 C 365.500 234.425, 362.866 233.467, 361.701 234.632 M 217.698 245.730 C 216.266 247.163, 215.628 247.249, 213.997 246.230 C 211.491 244.665, 211.333 244.683, 211.333 246.523 C 211.333 248.908, 215.761 249.526, 218.044 247.460 C 219.724 245.940, 220.403 245.863, 222.735 246.925 C 225.454 248.164, 225.457 248.162, 223.576 246.084 C 221.280 243.547, 219.961 243.468, 217.698 245.730 M 206.064 246.422 C 205.212 247.450, 205.514 247.624, 207.491 247.246 C 210.375 246.695, 210.558 246.428, 208.573 245.666 C 207.788 245.365, 206.659 245.705, 206.064 246.422 M 495.168 246.687 C 492.970 250.793, 493.832 253.026, 496.872 251.100 C 497.903 250.447, 498.007 249.521, 497.289 247.368 C 496.346 244.537, 496.322 244.530, 495.168 246.687 M 10.510 247.984 C 9.773 249.177, 10.709 251, 12.059 251 C 13.276 251, 13.284 248.293, 12.069 247.543 C 11.557 247.226, 10.856 247.425, 10.510 247.984 M 128 261.201 C 128 272.333, 128.113 273, 130 273 C 131.859 273, 132 272.333, 132 263.571 C 132 256.524, 132.379 253.764, 133.500 252.643 C 135.618 250.525, 135.438 250.270, 131.500 249.810 L 128 249.402 128 261.201 M 373.750 249.724 C 370.960 250.139, 370.180 251.375, 372 252.500 C 372.635 252.892, 373 265.459, 373 286.905 C 373 305.488, 373.292 324.812, 373.650 329.846 C 374.248 338.273, 374.466 339, 376.400 339 L 378.500 338.999 378.463 294.321 C 378.440 266.491, 378.063 249.580, 377.463 249.479 C 376.933 249.389, 375.262 249.499, 373.750 249.724 M 298.707 252.771 C 297.195 254.442, 297.325 254.522, 300.983 254.173 C 303.809 253.904, 304.716 253.423, 304.324 252.402 C 303.577 250.455, 300.627 250.650, 298.707 252.771 M 277.250 261.662 C 274.865 262.625, 276.016 263.651, 278.990 263.215 C 280.634 262.973, 281.733 262.376, 281.431 261.888 C 280.842 260.935, 279.263 260.850, 277.250 261.662 M 273.564 265.707 C 273.022 267.132, 273.136 267.247, 274.124 266.267 C 274.808 265.588, 275.115 264.781, 274.807 264.474 C 274.499 264.166, 273.940 264.721, 273.564 265.707 M 142 268.759 C 142 269.727, 142.960 271.118, 144.133 271.851 L 146.266 273.183 143.892 274.367 C 142.586 275.018, 141.368 276.326, 141.186 277.275 C 140.693 279.833, 145.038 279.569, 145.710 277 C 146.344 274.575, 147.561 274.414, 148.416 276.641 C 149.484 279.425, 148.098 281.682, 144.726 282.649 L 141.500 283.575 141.271 334.037 C 141.054 382.006, 141.127 384.364, 142.753 381.750 C 144.899 378.300, 149.034 378.079, 152.089 381.250 L 154.257 383.500 153.621 377.764 C 153.272 374.609, 152.261 369.893, 151.375 367.283 C 149.415 361.511, 149.993 351.472, 152.389 349.675 C 153.717 348.679, 153.996 344.965, 154.227 325.249 C 154.377 312.461, 154.162 301.999, 153.750 301.999 C 153.338 302, 153 302.450, 153 303 C 153 304.190, 147.046 304.316, 145.232 303.164 C 141.017 300.489, 142.313 289.796, 147.182 287.069 C 149.643 285.690, 150.045 285.728, 152.080 287.533 L 154.296 289.500 153.660 279.500 C 152.943 268.218, 152.179 267, 145.809 267 C 142.840 267, 142 267.388, 142 268.759 M 353.444 268.091 C 352.120 270.232, 351.603 288, 352.864 288 C 353.489 288, 354 287.550, 354 287 C 354 285.167, 357.060 285.970, 359.545 288.455 C 362.690 291.599, 362.666 295.025, 359.479 298.019 C 357.227 300.135, 356.797 300.226, 355.443 298.871 C 354.589 298.017, 354.208 296.622, 354.570 295.678 C 355.492 293.275, 357 293.608, 357 296.214 C 357 298.315, 357.089 298.340, 358.733 296.696 C 360.635 294.794, 359.863 292.551, 356.625 290.567 C 354.441 289.229, 352 292.092, 352 295.991 C 352 301.300, 357.030 302.726, 360.969 298.533 C 364.145 295.153, 365.011 286.774, 362.475 283.972 C 361.493 282.888, 360.197 281.993, 359.595 281.985 C 358.993 281.976, 357.866 281.568, 357.090 281.077 C 355.914 280.332, 355.892 279.674, 356.962 277.092 C 358.243 273.998, 358.916 273.605, 362.319 273.959 C 363.805 274.114, 364.080 273.541, 363.819 270.825 C 363.513 267.631, 363.317 267.488, 358.841 267.199 C 356.007 267.016, 353.892 267.365, 353.444 268.091 M 49.250 270.262 L 45 271.284 45 294.642 L 45 318 50.500 318 L 56 318 56 293.500 C 56 274.503, 55.719 269.027, 54.750 269.120 C 54.063 269.186, 51.587 269.700, 49.250 270.262 M 65.524 269.810 C 65.236 270.098, 65 281.038, 65 294.121 L 65 317.909 68.413 318.550 C 70.290 318.902, 72.765 318.892, 73.913 318.528 C 75.951 317.881, 76 317.312, 76 294.452 L 76 271.038 73.750 270.580 C 68.804 269.572, 66.022 269.312, 65.524 269.810 M 270.200 270.200 C 268.586 271.814, 268.686 273, 270.438 273 C 271.259 273, 271.811 272.143, 271.725 271 C 271.642 269.900, 271.535 269, 271.487 269 C 271.439 269, 270.860 269.540, 270.200 270.200 M 432.750 270.303 L 429 271.353 429 294.676 L 429 318 434.500 318 L 440 318 440 293.500 C 440 266.130, 440.616 268.100, 432.750 270.303 M 449.539 269.794 C 448.791 270.543, 448.881 309.645, 449.642 314.250 L 450.262 318 455.631 318 L 461 318 460.985 295.250 C 460.976 282.738, 460.639 272.003, 460.235 271.395 C 459.457 270.224, 450.456 268.877, 449.539 269.794 M 87.500 270.713 C 86.400 270.978, 85.111 271.562, 84.636 272.011 C 84.157 272.464, 84.101 282.931, 84.510 295.466 L 85.248 318.103 89.374 317.801 C 92.923 317.542, 93.490 317.185, 93.429 315.250 C 93.389 314.012, 93.277 303.325, 93.179 291.500 C 92.984 268.098, 93.316 269.314, 87.500 270.713 M 27.232 294.750 L 27.500 318.500 31.500 318.500 L 35.500 318.500 35.768 294.750 L 36.036 271 31.500 271 L 26.964 271 27.232 294.750 M 337.507 275.612 C 334.279 279.095, 332.405 282.327, 330.988 286.855 C 328.538 294.686, 328.356 297.780, 330.445 296.046 C 331.240 295.386, 332.927 294.994, 334.195 295.173 C 338.598 295.797, 337.451 304, 332.961 304 C 331.974 304, 330.940 303.438, 330.662 302.750 C 330.385 302.063, 330.122 302.512, 330.079 303.750 C 329.965 306.995, 333.974 306.711, 337.147 303.250 C 340.337 299.770, 345 290.057, 345 286.891 C 345 284.075, 341.700 281.643, 339.030 282.491 C 337.016 283.130, 335.663 285.645, 336.556 287.090 C 337.619 288.810, 339.861 287.997, 340.255 285.750 C 340.600 283.776, 340.744 283.715, 341.431 285.250 C 342.709 288.107, 341.320 290.171, 338.357 289.817 C 334.485 289.355, 333.122 286.658, 335.033 283.241 C 336.846 280, 340.448 279.190, 342.955 281.460 C 344.622 282.968, 344.788 282.922, 345.359 280.790 C 346.439 276.758, 346.050 274.355, 344.019 272.517 C 342.089 270.771, 341.918 270.852, 337.507 275.612 M 411.232 294.750 L 411.500 318.500 414.956 318.829 C 417.117 319.034, 418.803 318.623, 419.456 317.732 C 420.130 316.812, 420.398 308.269, 420.213 293.653 L 419.927 271 415.445 271 L 410.964 271 411.232 294.750 M 469 294.500 L 469 318 471.893 318 C 473.484 318, 474.975 317.438, 475.206 316.750 C 475.437 316.063, 475.435 305.488, 475.203 293.250 L 474.780 271 471.890 271 L 469 271 469 294.500 M 483.015 293.750 C 483.006 308.594, 483.362 317, 484 317 C 485.322 317, 485.322 274.045, 484 272 C 483.359 271.008, 483.025 278.369, 483.015 293.750 M 159.935 274.121 C 158.398 276.993, 159.632 286.591, 162.080 290.807 C 163.136 292.626, 164 295.042, 164 296.175 C 164 299.198, 171.188 306, 174.382 306 C 176.093 306, 177 305.457, 177 304.433 C 177 303.399, 176.404 303.051, 175.250 303.410 C 172.217 304.354, 171.006 302.738, 171.672 298.636 C 172.218 295.268, 172.543 294.919, 174.643 295.446 C 177.521 296.169, 177.525 296.010, 174.848 287.481 C 173.360 282.739, 171.471 279.297, 168.721 276.313 C 164.339 271.559, 161.663 270.892, 159.935 274.121 M 162.452 282.433 C 160.481 285.441, 161.847 288.672, 165.472 289.582 C 169.406 290.570, 170.675 288.903, 167.126 287.411 C 165.070 286.546, 164 285.396, 164 284.048 C 164 282.922, 164.450 282, 165 282 C 165.550 282, 166 282.900, 166 284 C 166 286.091, 166.775 286.407, 169.418 285.393 C 171.417 284.626, 171.420 283.563, 169.429 281.571 C 167.147 279.290, 164.280 279.644, 162.452 282.433 M 128.652 292.121 C 128.293 297.173, 128 309.788, 128 320.154 C 128 338.383, 128.066 339, 130.016 339 C 131.995 339, 132.027 338.494, 131.766 311.333 C 131.583 292.350, 131.155 283.551, 130.402 283.300 C 129.688 283.062, 129.076 286.143, 128.652 292.121 M 146.655 291.829 C 145.745 292.835, 145 294.790, 145 296.174 C 145 299.174, 148.299 302.483, 150.463 301.653 C 152.429 300.898, 152.436 298.607, 150.476 296.980 C 149.638 296.284, 149.185 295.482, 149.470 295.197 C 149.755 294.912, 150.890 295.496, 151.994 296.494 C 153.938 298.254, 154 298.249, 154 296.329 C 154 294.585, 150.262 290, 148.841 290 C 148.549 290, 147.565 290.823, 146.655 291.829 M 119 341.500 C 119 374.500, 119.347 392, 120 392 C 120.653 392, 121 374.500, 121 341.500 C 121 308.500, 120.653 291, 120 291 C 119.347 291, 119 308.500, 119 341.500 M 167.250 295.662 C 165.466 296.382, 165.706 298.424, 167.796 300.315 C 169.495 301.853, 169.570 301.754, 169.186 298.470 C 168.963 296.562, 168.718 295.036, 168.641 295.079 C 168.563 295.122, 167.938 295.385, 167.250 295.662 M 332.032 300.250 C 332.062 303.324, 332.143 303.395, 333.532 301.559 C 335.423 299.059, 335.408 297, 333.500 297 C 332.468 297, 332.010 298.014, 332.032 300.250 M 173 299 C 173 299.550, 173.450 300, 174 300 C 174.550 300, 175 299.550, 175 299 C 175 298.450, 174.550 298, 174 298 C 173.450 298, 173 298.450, 173 299 M 343.520 299.938 C 342.617 302.781, 336.287 307.993, 332.918 308.666 L 330 309.250 330 319.500 C 330 331.481, 330.719 336, 332.625 336 C 333.661 336, 334 337.732, 334 343.031 C 334 350.668, 334.801 351.769, 339.502 350.589 C 341.701 350.037, 342 349.426, 342 345.481 C 342 342.165, 342.390 341, 343.500 341 C 344.787 341, 345 337.944, 345 319.500 C 345 307.675, 344.805 298, 344.567 298 C 344.329 298, 343.858 298.872, 343.520 299.938 M 361.326 301.518 C 359.126 304.029, 354.659 304.875, 353.500 303 C 351.801 300.252, 351.523 303.780, 351.787 324.669 C 352.069 346.863, 352.123 347.385, 354.375 349.471 C 357.327 352.208, 358.803 361.890, 356.527 363.585 C 354.945 364.762, 352.656 377.181, 353.186 381.708 L 353.512 384.500 355.014 381.512 C 356.987 377.585, 359.356 377.265, 362.583 380.492 C 364.029 381.938, 365.344 382.981, 365.505 382.811 C 365.666 382.640, 365.411 380.076, 364.938 377.113 C 364.464 374.150, 364.002 355.363, 363.910 335.363 C 363.818 315.363, 363.688 299.008, 363.621 299.018 C 363.555 299.028, 362.522 300.153, 361.326 301.518 M 161.697 319.178 C 162.028 329.805, 162.682 338.650, 163.150 338.833 C 163.617 339.017, 164 341.604, 164 344.583 L 164 350 168 350 L 172 350 172 344.067 C 172 338.986, 172.291 338.042, 174.028 337.491 C 175.953 336.880, 176.041 336.157, 175.778 323.210 L 175.500 309.572 172.054 308.585 C 170.159 308.042, 166.918 305.856, 164.852 303.728 L 161.095 299.857 161.697 319.178 M 87.783 326.721 C 84.099 327.271, 83.806 329.395, 84.186 352.788 C 84.444 368.605, 84.770 372.247, 86 373.023 C 88.425 374.553, 91.855 374.140, 92.897 372.193 C 94.184 369.788, 92.868 326.726, 91.500 326.489 C 90.950 326.394, 89.278 326.498, 87.783 326.721 M 430.602 326.718 C 428.823 327.173, 428.744 327.963, 429.352 339.259 C 429.708 345.889, 430 356.193, 430 362.157 L 430 373 435.500 373 C 440.130 373, 441 372.715, 441 371.200 C 441 370.210, 440.449 368.849, 439.775 368.175 C 438.808 367.208, 438.808 366.536, 439.775 364.989 C 441.474 362.267, 441.497 328.897, 439.800 327.200 C 438.611 326.011, 434.257 325.782, 430.602 326.718 M 28.232 350.250 L 28.500 373.500 32 373.500 L 35.500 373.500 35.768 350.250 L 36.037 327 32 327 L 27.963 327 28.232 350.250 M 45.232 350.250 L 45.500 373.500 50.260 373.805 C 55.828 374.162, 57.195 372.473, 54.575 368.474 C 53.112 366.241, 53.100 365.899, 54.465 365.375 C 55.770 364.874, 56 361.955, 56 345.893 L 56 327 50.482 327 L 44.963 327 45.232 350.250 M 65 345.378 C 65 360.286, 65.276 363.984, 66.463 364.969 C 67.744 366.033, 67.734 366.477, 66.377 368.548 C 64.193 371.881, 65.369 373, 71.059 373 L 76 373 76 350 L 76 327 70.500 327 L 65 327 65 345.378 M 411.714 327.620 C 410.826 328.508, 410.800 343.429, 411.658 360.250 L 412.309 373 416.673 373 L 421.038 373 420.769 350.250 L 420.500 327.500 416.464 327.203 C 414.244 327.040, 412.106 327.227, 411.714 327.620 M 450 345.378 C 450 360.628, 450.260 363.970, 451.525 365.021 C 452.888 366.152, 452.875 366.481, 451.404 368.106 C 448.618 371.185, 450.310 373, 455.969 373 L 461 373 461 350 L 461 327 455.500 327 L 450 327 450 345.378 M 469 348.418 C 469 360.198, 469.273 370.548, 469.607 371.418 C 469.967 372.356, 471.391 373, 473.107 373 L 476 373 476 350 L 476 327 472.500 327 L 469 327 469 348.418 M 483.346 339.157 C 483.706 345.843, 484 355.968, 484 361.657 C 484 367.886, 484.398 372, 485 372 C 485.615 372, 485.998 367.087, 485.995 359.250 C 485.988 341.988, 484.919 327, 483.696 327 C 483.044 327, 482.922 331.261, 483.346 339.157 M 374 370 L 374 393 376.627 393 L 379.255 393 378.522 370.750 C 378.118 358.512, 377.585 348.163, 377.335 347.750 C 377.086 347.337, 376.234 347, 375.441 347 C 374.228 347, 374 350.641, 374 370 M 128 370.804 C 128 389.697, 128.258 393.969, 129.459 394.966 C 131.782 396.894, 132.093 393.560, 131.783 370.013 C 131.526 350.475, 131.341 348.496, 129.750 348.190 C 128.124 347.877, 128 349.485, 128 370.804 M 285.015 350.250 C 285.051 353.162, 286.689 354.149, 290.345 353.463 C 292.346 353.088, 293.735 352.380, 293.432 351.890 C 292.611 350.562, 289.241 350.816, 288.659 352.250 C 288.274 353.200, 287.910 353.151, 287.142 352.048 C 286.587 351.249, 286.354 350.237, 286.625 349.798 C 286.896 349.359, 286.641 349, 286.059 349 C 285.477 349, 285.007 349.563, 285.015 350.250 M 215.191 350.908 C 213.921 351.233, 212.909 351.837, 212.941 352.250 C 212.973 352.663, 213 353.450, 213 354 C 213 354.550, 214.125 355, 215.500 355 C 216.875 355, 218 354.530, 218 353.956 C 218 353.382, 217.438 352.985, 216.750 353.075 C 213.547 353.491, 212.903 352.665, 216 352.112 C 217.925 351.768, 219.050 351.223, 218.500 350.901 C 217.950 350.579, 216.461 350.582, 215.191 350.908 M 184 352.858 C 184 354.431, 184.810 354.757, 188.953 354.850 C 191.677 354.912, 194.180 354.517, 194.516 353.974 C 195.226 352.825, 194.088 352.389, 188.250 351.572 C 184.545 351.053, 184 351.218, 184 352.858 M 313.582 351.846 C 308.135 353.067, 309.704 354.594, 316.543 354.726 C 322.195 354.836, 323.074 354.618, 322.801 353.177 C 322.451 351.329, 318.459 350.753, 313.582 351.846 M 188 360.170 C 188 361.574, 191.026 362.374, 192.137 361.263 C 192.808 360.592, 192.288 360.097, 190.570 359.769 C 189.157 359.498, 188 359.679, 188 360.170 M 301.813 359.683 C 302.534 359.972, 303.397 359.936, 303.729 359.604 C 304.061 359.272, 303.471 359.036, 302.417 359.079 C 301.252 359.127, 301.015 359.364, 301.813 359.683 M 315.311 360.306 C 314.507 361.607, 317.014 362.967, 320.250 362.985 C 324.427 363.008, 323.738 360.305, 319.439 359.803 C 317.481 359.574, 315.623 359.801, 315.311 360.306 M 184 361.969 C 184 363.322, 184.477 363.754, 185.526 363.352 C 186.702 362.900, 186.788 362.450, 185.903 361.383 C 184.362 359.526, 184 359.637, 184 361.969 M 200.250 360.689 C 201.213 360.941, 202.787 360.941, 203.750 360.689 C 204.713 360.438, 203.925 360.232, 202 360.232 C 200.075 360.232, 199.287 360.438, 200.250 360.689 M 334.865 366.692 C 332.361 367.320, 330.787 378.132, 333 379.500 C 333.550 379.840, 334 379.657, 334 379.094 C 334 378.531, 334.957 377.558, 336.126 376.932 C 339.127 375.326, 342.744 377.190, 344.509 381.251 L 345.922 384.500 345.961 380.928 C 346 377.377, 343.410 368.333, 342.156 367.639 C 340.756 366.865, 336.421 366.302, 334.865 366.692 M 165.149 368.851 C 163.078 370.922, 161.456 380.205, 162.758 382.532 C 163.394 383.668, 163.887 383.202, 164.841 380.563 C 166.541 375.861, 169.694 374.943, 172.589 378.308 C 175.371 381.543, 176.137 380.795, 175.369 375.596 C 174.184 367.574, 169.510 364.490, 165.149 368.851 M 190.813 367.683 C 191.534 367.972, 192.397 367.936, 192.729 367.604 C 193.061 367.272, 192.471 367.036, 191.417 367.079 C 190.252 367.127, 190.015 367.364, 190.813 367.683 M 321 370 C 321.589 371.100, 322.280 372, 322.535 372 C 322.791 372, 323 371.100, 323 370 C 323 368.869, 322.333 368, 321.465 368 C 320.240 368, 320.146 368.404, 321 370 M 430.070 381.250 C 430.109 383.038, 430.495 385.400, 430.928 386.500 C 431.362 387.604, 431.252 389.523, 430.682 390.783 C 429.826 392.675, 430.021 393.327, 431.824 394.590 C 433.021 395.428, 434.007 396.875, 434.015 397.807 C 434.039 400.414, 435.264 401.777, 438.260 402.529 L 441 403.217 441 390.608 L 441 378 435.500 378 L 430 378 430.070 381.250 M 452.103 378.703 L 449.705 379.178 450.366 390.753 C 450.730 397.119, 451.453 402.840, 451.972 403.466 C 452.491 404.092, 452.671 405.541, 452.372 406.686 C 451.953 408.288, 452.549 409.128, 454.965 410.333 C 458.919 412.305, 459.509 411.217, 458.705 403.432 C 458.380 400.286, 458.543 398, 459.091 398 C 459.612 398, 459.756 396.876, 459.411 395.502 C 459.066 394.128, 459.116 392.216, 459.522 391.252 C 459.928 390.289, 460.289 387.025, 460.323 384 C 460.385 378.595, 460.335 378.498, 457.443 378.364 C 455.824 378.289, 453.421 378.442, 452.103 378.703 M 469.946 379.566 C 468.870 380.861, 468.928 381.608, 470.279 383.895 C 471.792 386.456, 471.790 386.781, 470.257 388.315 C 468.717 389.855, 468.750 390.171, 470.745 392.870 C 472.634 395.423, 472.721 395.992, 471.476 397.635 C 469.985 399.604, 469.456 410.685, 470.765 412.542 C 471.169 413.116, 472.717 413.671, 474.204 413.777 L 476.908 413.970 476.304 396.735 C 475.927 385.964, 475.287 379.224, 474.600 378.765 C 472.869 377.609, 471.353 377.870, 469.946 379.566 M 44.655 381.213 C 44.319 382.497, 44.690 384.105, 45.538 385.042 C 47.327 387.019, 47.376 388.416, 45.750 391.058 C 44.664 392.822, 44.823 393.334, 46.953 394.952 C 49.144 396.616, 49.277 397.096, 48.203 399.454 C 46.382 403.451, 46.684 403.925, 50.646 403.283 C 54.159 402.712, 54.274 402.788, 53.785 405.345 C 53.437 407.167, 53.705 408, 54.639 408 C 55.725 408, 56 405.066, 56 393.500 L 56 379 50.617 379 C 45.901 379, 45.161 379.275, 44.655 381.213 M 66 394.393 C 66 407.507, 66.234 409.876, 67.582 410.393 C 72.877 412.425, 75.867 409.157, 73.971 403.412 C 73.138 400.887, 73.121 399.559, 73.910 398.608 C 74.510 397.885, 75.293 393.178, 75.650 388.147 L 76.299 379 71.150 379 L 66 379 66 394.393 M 84.537 380.882 C 84.190 381.978, 84.467 383.775, 85.154 384.876 C 86.164 386.493, 86.141 387.369, 85.031 389.442 C 83.795 391.752, 83.874 392.237, 85.829 394.318 C 88.118 396.755, 88.680 399, 87 399 C 86.450 399, 86 400.125, 86 401.500 C 86 402.875, 86.506 404, 87.125 404 C 87.842 404, 88.032 405.089, 87.650 407 C 87.090 409.800, 87.250 410, 90.051 410 L 93.052 410 92.776 394.750 L 92.500 379.500 88.835 379.195 C 85.899 378.950, 85.044 379.286, 84.537 380.882 M 336.232 381 C 334.879 383.166, 335.881 383.719, 337.758 381.842 C 338.634 380.966, 339.289 380.995, 340.458 381.965 C 341.732 383.023, 342 382.982, 342 381.729 C 342 380.385, 340.051 379, 338.159 379 C 337.786 379, 336.919 379.900, 336.232 381 M 412.667 379.667 C 411.631 380.702, 411.912 400.314, 412.987 402 C 414.504 404.381, 417.443 401.892, 417.828 397.899 C 418.009 396.030, 418.827 393.756, 419.646 392.846 C 420.889 391.467, 420.921 390.847, 419.841 389.116 C 418.757 387.381, 418.806 386.588, 420.140 384.271 C 421.017 382.747, 421.532 380.938, 421.284 380.250 C 420.817 378.954, 413.851 378.483, 412.667 379.667 M 29.200 381.200 C 27.941 382.459, 27.528 396.636, 28.630 400.750 C 29.342 403.404, 30.285 403.572, 32.429 401.428 C 33.404 400.453, 33.781 398.974, 33.420 397.537 C 33.100 396.262, 33.346 394.904, 33.967 394.520 C 34.694 394.071, 34.867 392.294, 34.452 389.530 C 34.047 386.824, 34.214 384.986, 34.904 384.559 C 35.507 384.187, 36 383.009, 36 381.941 C 36 380.482, 35.305 380, 33.200 380 C 31.660 380, 29.860 380.540, 29.200 381.200 M 166 382 C 165.274 383.356, 165.263 384, 165.965 384 C 166.534 384, 166.095 384.905, 164.990 386.010 C 163.348 387.652, 163.098 388.798, 163.626 392.260 C 164.738 399.549, 168.127 401.197, 171.966 396.316 C 174.279 393.376, 174.098 390.629, 171.141 383.750 C 169.347 379.579, 167.612 378.988, 166 382 M 357.813 381.683 C 358.534 381.972, 359.397 381.936, 359.729 381.604 C 360.061 381.272, 359.471 381.036, 358.417 381.079 C 357.252 381.127, 357.015 381.364, 357.813 381.683 M 143.615 384.465 C 141.373 387.887, 141.348 399.536, 143.582 400.393 C 149.317 402.594, 153 399.278, 153 391.912 C 153 383.752, 147.133 379.096, 143.615 384.465 M 484 393.500 C 484 400.500, 484.391 405, 485 405 C 485.609 405, 486 400.500, 486 393.500 C 486 386.500, 485.609 382, 485 382 C 484.391 382, 484 386.500, 484 393.500 M 335.975 386.565 C 334.211 391.206, 334.806 395.715, 337.545 398.455 C 340.762 401.671, 342.374 401.670, 343.839 398.453 C 345.616 394.555, 345.230 389.563, 342.927 386.635 C 340.267 383.252, 337.246 383.222, 335.975 386.565 M 355.655 385.829 C 353.659 388.034, 353.512 391.369, 355.330 393.188 C 356.062 393.919, 356.501 394.997, 356.306 395.582 C 355.686 397.442, 359.675 400.238, 361.928 399.523 C 363.732 398.950, 364 398.059, 364 392.633 C 364 389.118, 363.477 385.877, 362.800 385.200 C 361.033 383.433, 357.546 383.740, 355.655 385.829 M 144.667 385.667 C 143.200 387.133, 144.133 389, 146.333 389 C 149.175 389, 150.035 388.254, 149.324 386.402 C 148.768 384.954, 145.842 384.492, 144.667 385.667 M 166 388 C 165.039 389.796, 165.240 390, 167.965 390 C 171.193 390, 171.750 389.150, 169.800 387.200 C 168.113 385.513, 167.232 385.698, 166 388 M 357.021 388.960 C 356.409 390.105, 356.169 391.465, 356.489 391.983 C 357.404 393.463, 362.123 390.875, 361.778 389.083 C 361.318 386.699, 358.274 386.620, 357.021 388.960 M 338.250 388.700 C 337.563 388.957, 337 389.894, 337 390.783 C 337 392.041, 337.267 392.133, 338.200 391.200 C 340.069 389.331, 340.766 389.774, 340.245 392.500 C 339.715 395.271, 341.675 396.012, 342.670 393.417 C 343.388 391.548, 340.079 388.018, 338.250 388.700 M 148.109 391.933 C 146.956 392.645, 146.982 393.136, 148.272 394.978 L 149.810 397.174 150.504 394.986 C 151.330 392.386, 150.039 390.740, 148.109 391.933 M 165 393.081 C 165 394.507, 168.049 396.195, 169.570 395.611 C 171.996 394.681, 170.685 392.506, 167.667 392.454 C 166.200 392.428, 165 392.710, 165 393.081 M 359.244 394.664 C 358.553 394.943, 358.242 395.582, 358.553 396.085 C 359.403 397.460, 360.714 397.187, 361.362 395.500 C 361.950 393.965, 361.459 393.771, 359.244 394.664 M 144.188 396.739 C 144.372 397.695, 145.333 398.633, 146.323 398.824 C 147.911 399.129, 147.969 398.924, 146.821 397.085 C 145.239 394.552, 143.729 394.353, 144.188 396.739 M 142.667 402.667 C 142.300 403.033, 142 404.383, 142 405.667 C 142 407.310, 142.574 408, 143.941 408 C 145.009 408, 146.154 408.441, 146.487 408.979 C 147.361 410.393, 145.190 414, 143.465 414 C 142.457 414, 142 415.093, 142 417.500 C 142 419.628, 142.490 421.004, 143.250 421.010 C 147.630 421.046, 172.903 416.511, 174.750 415.358 C 179.240 412.556, 176.643 403, 171.391 403 C 169.518 403, 168.635 403.748, 167.850 406 C 167.275 407.650, 166.173 409, 165.402 409 C 163.685 409, 163.569 406.831, 165.200 405.200 C 167.066 403.334, 163.932 403.659, 161.129 405.622 C 159.241 406.944, 158.882 407.961, 159.183 411.122 C 159.486 414.295, 159.233 415, 157.795 415 C 156.726 415, 155.835 414.021, 155.519 412.500 C 155.234 411.125, 154.759 408.845, 154.464 407.434 C 153.723 403.882, 144.983 400.350, 142.667 402.667 M 332.655 404.829 C 330.699 406.990, 330.484 411.967, 332.250 414.193 C 333.078 415.236, 337.889 416.483, 346.500 417.887 C 364.110 420.756, 364 420.764, 364 416.617 C 364 414.088, 363.501 413.103, 362.024 412.717 C 359.409 412.033, 357.223 407.377, 358.785 405.815 C 359.625 404.975, 360.317 405.018, 361.482 405.985 C 363.363 407.546, 364.285 406.906, 363.417 404.643 C 362.666 402.687, 357.351 402.427, 353.547 404.161 C 351.328 405.171, 351 405.945, 351 410.161 C 351 416.267, 349.343 416.469, 348.444 410.472 C 348.006 407.553, 347.096 405.586, 345.882 404.937 C 344.314 404.098, 344 404.284, 344 406.053 C 344 407.969, 343.618 408.111, 340.074 407.512 C 336.331 406.880, 336.129 406.982, 335.764 409.675 C 335.428 412.151, 335.275 412.265, 334.524 410.594 C 333.881 409.166, 334.229 408.233, 335.910 406.872 C 338.162 405.048, 337.996 403, 335.596 403 C 334.889 403, 333.565 403.823, 332.655 404.829 M 130.079 407.583 C 130.127 408.748, 130.364 408.985, 130.683 408.188 C 130.972 407.466, 130.936 406.603, 130.604 406.271 C 130.272 405.939, 130.036 406.529, 130.079 407.583 M 171 407.296 C 171 408.143, 170.725 409.553, 170.389 410.430 C 169.950 411.572, 170.212 411.856, 171.311 411.434 C 173.539 410.579, 174.105 408.332, 172.441 406.951 C 171.292 405.998, 171 406.068, 171 407.296 M 119 428 C 119 437.333, 119.378 443, 120 443 C 120.622 443, 121 437.333, 121 428 C 121 418.667, 120.622 413, 120 413 C 119.378 413, 119 418.667, 119 428 M 156.478 439.892 C 144.915 442.482, 134.903 444.942, 134.228 445.359 C 133.504 445.807, 133 448.324, 133 451.492 C 133 458.557, 134.762 459.195, 143.256 455.208 C 149.109 452.460, 161.325 448.417, 175.750 444.454 C 181.094 442.985, 182 442.405, 182 440.450 C 182 439.192, 182.273 437.452, 182.607 436.582 C 183.531 434.173, 180.023 434.617, 156.478 439.892 M 325.002 438.750 L 325.003 442.500 340.752 446.863 C 349.413 449.263, 359.284 452.526, 362.687 454.113 C 366.090 455.701, 369.487 457, 370.237 457 C 372.697 457, 374 454.671, 374 450.275 C 374 446.594, 373.632 445.810, 371.526 445.010 C 368.355 443.804, 328.913 435, 326.683 435 C 325.405 435, 325 435.901, 325.002 438.750 M 470.195 441.750 C 470.497 446.454, 470.536 446.503, 474.250 446.810 L 478 447.121 478 442.060 L 478 437 473.945 437 L 469.890 437 470.195 441.750 M 86.250 438.687 C 85.540 438.959, 85 440.884, 85 443.141 L 85 447.115 89.250 446.807 C 92.951 446.540, 93.533 446.177, 93.759 444 C 93.902 442.625, 93.677 441.007, 93.259 440.404 C 92.346 439.085, 87.992 438.019, 86.250 438.687 M 413.417 439.355 C 413.106 440.167, 412.997 442.107, 413.175 443.666 C 413.469 446.232, 413.908 446.529, 417.810 446.810 L 422.121 447.121 421.810 442.810 C 421.508 438.614, 421.401 438.492, 417.742 438.189 C 415.134 437.973, 413.811 438.330, 413.417 439.355 M 454.500 438.878 C 451.862 439.442, 451.500 439.941, 451.500 443.010 C 451.500 446.463, 451.545 446.499, 455.753 446.413 C 458.092 446.366, 460.284 446.049, 460.623 445.710 C 461.669 444.664, 459.983 437.993, 458.705 438.118 C 458.042 438.183, 456.150 438.525, 454.500 438.878 M 29 442.940 L 29 447 33.060 447 L 37.121 447 36.810 443.250 C 36.517 439.704, 36.296 439.483, 32.750 439.190 L 29 438.879 29 442.940 M 432.429 440.324 C 432.106 441.166, 431.990 442.900, 432.171 444.177 C 432.448 446.132, 433.174 446.549, 436.750 446.807 L 441 447.115 441 443.557 C 441 440.462, 440.686 440, 438.582 440 C 437.252 440, 435.456 439.728, 434.590 439.396 C 433.665 439.041, 432.775 439.423, 432.429 440.324 M 66.187 443.250 C 66.481 446.301, 66.761 446.519, 70.750 446.807 L 75 447.115 75 443.557 C 75 440.001, 74.999 440, 70.437 440 C 65.891 440, 65.874 440.012, 66.187 443.250 M 46.787 444 C 47.199 446.810, 47.504 447, 51.613 447 C 55.821 447, 56 446.877, 56 444 C 56 441.081, 55.870 441, 51.173 441 C 46.379 441, 46.349 441.020, 46.787 444 M 189 445.621 C 185.701 447.524, 181.699 448.584, 174 449.592 C 163.539 450.962, 147.824 453.843, 147.153 454.514 C 146.959 454.708, 147.096 455.347, 147.459 455.933 C 147.884 456.622, 154.185 457, 165.215 457 C 182.146 457, 182.346 456.974, 185.906 454.346 C 197.773 445.584, 200.014 439.266, 189 445.621 M 217.975 444.340 C 217.714 444.591, 212.788 445.767, 207.030 446.955 C 196.275 449.174, 192.353 450.619, 188 453.968 C 186.153 455.389, 185.793 456.186, 186.620 457.016 C 188.375 458.777, 238 452.056, 238 450.057 C 238 449.653, 234.287 448.303, 229.750 447.058 C 225.213 445.813, 220.814 444.589, 219.975 444.339 C 219.136 444.089, 218.236 444.089, 217.975 444.340 M 280.500 446.025 C 277.200 447.023, 273.209 448.122, 271.632 448.468 C 265.974 449.709, 270.188 450.825, 294.439 454.506 C 311.862 457.150, 320 457.630, 320 456.014 C 320 453.632, 311.605 449.767, 300.408 446.995 C 286.719 443.605, 288.257 443.680, 280.500 446.025 M 310.639 445.501 C 310.955 446.326, 314.204 449.253, 317.857 452.004 L 324.500 457.007 342.418 456.754 C 354.613 456.581, 360.455 456.140, 360.710 455.373 C 361.275 453.673, 359.320 453.216, 341.714 450.932 C 330.525 449.480, 323.757 448.080, 319.875 446.414 C 313.326 443.603, 309.776 443.252, 310.639 445.501" stroke="none" fill="black" fill-rule="evenodd"/>
</svg>